<?xml version="1.0" encoding="UTF-8" standalone="no"?>
<!DOCTYPE svg PUBLIC "-//W3C//DTD SVG 1.1//EN" "http://www.w3.org/Graphics/SVG/1.1/DTD/svg11.dtd">
<svg version="1.1" xmlns="http://www.w3.org/2000/svg" xmlns:xlink="http://www.w3.org/1999/xlink" preserveAspectRatio="xMidYMid meet" viewBox="0 0 640 640" width="640" height="640"><defs><path d="M623.19 320C623.19 487.34 487.34 623.19 320 623.19C152.66 623.19 16.81 487.34 16.81 320C16.81 152.66 152.66 16.81 320 16.81C487.34 16.81 623.19 152.66 623.19 320Z" id="bbh1JmBBX"></path><path d="M155.87 157.17C169.53 156.96 194.58 160.87 196.07 161.12C202.26 162.17 217.5 164.85 226.91 167.72C231.24 169.04 236.07 170.69 241.22 172.77C253.96 177.9 264.65 183.3 273.29 188.97C280.35 194.1 287.91 199.9 295.98 206.37C304.05 212.84 312.06 221.9 320 233.57C320 253.96 320 355.89 320 539.37L305.3 539.37L261.74 514.47C243.92 504.09 234.02 498.33 232.04 497.17C240.5 485.1 247.61 473.1 253.34 461.17C259.07 449.24 262.89 440.67 264.79 435.47C270.59 421.33 273.82 409.67 274.49 400.47C275.49 386.67 273.29 365.77 273.29 364.17C273.29 363.1 272.49 355.57 270.89 341.57C270.77 340.91 270.21 337.61 269.19 331.67C265.59 316.61 263.59 308.25 263.19 306.57C260.99 299.24 258.8 294.04 256.6 290.97C253.3 286.37 235.62 259.77 201.42 245.37C178.62 235.77 157.18 231 137.12 231.07C136.13 231.07 131.18 231.07 122.27 231.07L72.37 231.07L93.77 157.17L124.57 157.17C139.37 157.26 149.81 157.26 155.87 157.17Z" id="bi4fdZUm"></path><path d="M484.13 157.17C470.47 156.96 445.42 160.87 443.93 161.12C437.74 162.17 422.5 164.85 413.09 167.72C408.76 169.04 403.93 170.69 398.78 172.77C386.04 177.9 375.35 183.3 366.71 188.97C359.65 194.1 352.09 199.9 344.02 206.37C335.95 212.84 327.94 221.9 320 233.57C320 253.96 320 355.89 320 539.37L334.7 539.37L378.26 514.47C396.08 504.09 405.98 498.33 407.96 497.17C399.5 485.1 392.39 473.1 386.66 461.17C380.93 449.24 377.11 440.67 375.21 435.47C369.41 421.33 366.18 409.67 365.51 400.47C364.51 386.67 366.71 365.77 366.71 364.17C366.71 363.1 367.51 355.57 369.11 341.57C369.23 340.91 369.79 337.61 370.81 331.67C374.41 316.61 376.41 308.25 376.81 306.57C379.01 299.24 381.2 294.04 383.4 290.97C386.7 286.37 404.38 259.77 438.58 245.37C461.38 235.77 482.82 231 502.88 231.07C503.87 231.07 508.82 231.07 517.73 231.07L567.63 231.07L546.23 157.17L515.43 157.17C500.63 157.26 490.19 157.26 484.13 157.17Z" id="cMNKBbcp4"></path><path d="M320 547.12L320 552.84L302.98 552.84L232.02 512.38L232.02 504.95L305.86 547.12L320 547.12Z" id="gD2fKNwbz"></path><path d="M320 547.12L320 552.84L337.02 552.84L407.98 512.38L407.98 504.95L334.14 547.12L320 547.12Z" id="aumXwNX96"></path></defs><g><g><g><use xlink:href="#bbh1JmBBX" opacity="1" fill="#030d0f" fill-opacity="1"></use></g><g><use xlink:href="#bi4fdZUm" opacity="1" fill="#e9f1f7" fill-opacity="1"></use><g><use xlink:href="#bi4fdZUm" opacity="1" fill-opacity="0" stroke="#000000" stroke-width="1" stroke-opacity="0"></use></g></g><g><use xlink:href="#cMNKBbcp4" opacity="1" fill="#e4d6b6" fill-opacity="1"></use><g><use xlink:href="#cMNKBbcp4" opacity="1" fill-opacity="0" stroke="#000000" stroke-width="1" stroke-opacity="0"></use></g></g><g><use xlink:href="#gD2fKNwbz" opacity="1" fill="#e4d6b6" fill-opacity="1"></use><g><use xlink:href="#gD2fKNwbz" opacity="1" fill-opacity="0" stroke="#000000" stroke-width="1" stroke-opacity="0"></use></g></g><g><use xlink:href="#aumXwNX96" opacity="1" fill="#e9f1f7" fill-opacity="1"></use><g><use xlink:href="#aumXwNX96" opacity="1" fill-opacity="0" stroke="#000000" stroke-width="1" stroke-opacity="0"></use></g></g></g></g></svg>