<?xml version="1.0" encoding="UTF-8" standalone="no"?>
<!DOCTYPE svg PUBLIC "-//W3C//DTD SVG 1.1//EN" "http://www.w3.org/Graphics/SVG/1.1/DTD/svg11.dtd">
<svg version="1.1" xmlns="http://www.w3.org/2000/svg" xmlns:xlink="http://www.w3.org/1999/xlink" preserveAspectRatio="xMidYMid meet" viewBox="0 0 640 640" width="640" height="640"><defs><path d="M108.74 75.09C108.74 83.79 108.74 153.38 108.74 162.08C108.74 162.08 112.46 210.55 146.02 218C146.02 218 226.79 230.43 226.79 230.43C233.01 234.99 264.08 257.77 320 298.78L320 640.53C275.26 606.97 250.41 588.33 245.44 584.6C245.44 584.6 241.71 516.25 251.65 516.25C251.65 516.25 208.15 452.87 189.51 398.2C188.69 383.42 186.79 369.72 190.6 356.4C192.07 357.42 259.95 395.24 273.16 401.97C273.16 399.06 273.16 375.74 273.16 372.83C210.07 337.03 201.94 336.06 201.94 336.06C196.97 336.06 157.2 336.06 152.23 336.06C152.23 336.06 129.86 336.06 96.31 311.21C67.73 291.32 36.66 267.71 21.75 205.57C21.75 189.42 21.75 60.18 21.75 44.02C21.75 44.02 27.96 20.41 9.32 0.53C29.2 15.44 76.43 10.47 108.74 75.09Z" id="fRmYhCghZ"></path><path d="M531.26 75.09C531.26 83.79 531.26 153.38 531.26 162.08C531.26 162.08 527.53 210.55 493.98 218C493.98 218 413.2 230.43 413.2 230.43C406.99 234.99 375.92 257.77 320 298.78L320 640.53C364.74 606.97 389.59 588.33 394.56 584.6C394.56 584.6 398.29 516.25 388.35 516.25C388.35 516.25 431.84 452.87 450.48 398.2C451.31 383.42 453.21 369.72 449.39 356.4C447.92 357.42 380.05 395.24 366.84 401.97C366.84 399.06 366.84 375.74 366.84 372.83C429.92 337.03 438.06 336.06 438.06 336.06C443.03 336.06 482.79 336.06 487.77 336.06C487.77 336.06 510.13 336.06 543.69 311.21C572.27 291.32 603.34 267.71 618.25 205.57C618.25 189.42 618.25 60.18 618.25 44.02C618.25 44.02 612.04 20.41 630.68 0.53C610.79 15.44 563.57 10.47 531.26 75.09Z" id="a2YvgcuNN6"></path></defs><g><g><g><use xlink:href="#fRmYhCghZ" opacity="1" fill="#FFF" fill-opacity="0"></use><g><use xlink:href="#fRmYhCghZ" opacity="1" fill-opacity="0" stroke="#FFF" stroke-width="10" stroke-opacity="1"></use></g></g><g><use xlink:href="#a2YvgcuNN6" opacity="1" fill="#FFF" fill-opacity="0"></use><g><use xlink:href="#a2YvgcuNN6" opacity="1" fill-opacity="0" stroke="#FFF" stroke-width="10" stroke-opacity="1"></use></g></g></g></g></svg>
