<?xml version="1.0" encoding="UTF-8" standalone="no"?>
<!DOCTYPE svg PUBLIC "-//W3C//DTD SVG 1.1//EN" "http://www.w3.org/Graphics/SVG/1.1/DTD/svg11.dtd">
<svg version="1.1" xmlns="http://www.w3.org/2000/svg" xmlns:xlink="http://www.w3.org/1999/xlink" preserveAspectRatio="xMidYMid meet" viewBox="0 0 640 640" width="512" height="512"><defs><path d="M75.71 93.11C90.42 93.28 103.47 93.28 114.84 93.11C131.91 92.84 163.22 97.73 165.09 98.05C172.83 99.36 191.87 102.71 203.64 106.29C209.05 107.94 215.09 110.01 221.53 112.61C237.45 119.02 250.81 125.77 261.61 132.86C270.44 139.27 279.89 146.52 289.97 154.61C300.06 162.69 310.07 174.02 320 188.61L320 570.86L301.63 570.86L247.17 539.73L210.05 518.11C220.63 503.02 229.51 488.02 236.67 473.11C243.84 458.19 248.61 447.48 250.99 440.98C258.24 423.31 262.28 408.73 263.11 397.23C264.36 379.98 261.61 353.86 261.61 351.86C261.61 350.52 260.61 341.11 258.61 323.61L256.49 311.23L248.99 279.86C246.24 270.69 243.5 264.19 240.75 260.36C236.62 254.61 214.52 221.36 171.77 203.36C143.27 191.36 116.48 185.4 91.4 185.48L72.84 185.48L10.46 185.48L37.21 93.11L75.71 93.11Z" id="ac2Pa4TEb"></path><path d="M564.29 93.11C549.58 93.28 536.53 93.28 525.16 93.11C508.09 92.84 476.78 97.73 474.91 98.05C467.17 99.36 448.13 102.71 436.36 106.29C430.95 107.94 424.91 110.01 418.47 112.61C402.55 119.02 389.19 125.77 378.39 132.86C369.56 139.27 360.11 146.52 350.03 154.61C339.94 162.69 329.93 174.02 320 188.61L320 570.86L338.37 570.86L392.83 539.73L429.95 518.11C419.37 503.02 410.49 488.02 403.33 473.11C396.16 458.19 391.39 447.48 389.01 440.98C381.76 423.31 377.72 408.73 376.89 397.23C375.64 379.98 378.39 353.86 378.39 351.86C378.39 350.52 379.39 341.11 381.39 323.61L383.51 311.23L391.01 279.86C393.76 270.69 396.5 264.19 399.25 260.36C403.38 254.61 425.48 221.36 468.23 203.36C496.73 191.36 523.52 185.4 548.6 185.48L567.16 185.48L629.54 185.48L602.79 93.11L564.29 93.11Z" id="fX0zu33fO"></path><path d="M302.33 580.55L320 580.55L320 587.69L298.73 587.69L210.02 537.12L210.02 527.83L302.33 580.55Z" id="f4cq1tk8"></path><path d="M337.67 580.55L320 580.55L320 587.69L341.27 587.69L429.98 537.12L429.98 527.83L337.67 580.55Z" id="e3B4fnXUan"></path></defs><g><g><g><use xlink:href="#ac2Pa4TEb" opacity="1" fill="#e9f1f7" fill-opacity="1"></use><g><use xlink:href="#ac2Pa4TEb" opacity="1" fill-opacity="0" stroke="#000000" stroke-width="0" stroke-opacity="1"></use></g></g><g><use xlink:href="#fX0zu33fO" opacity="1" fill="#e4d6b6" fill-opacity="1"></use><g><use xlink:href="#fX0zu33fO" opacity="1" fill-opacity="0" stroke="#000000" stroke-width="0" stroke-opacity="1"></use></g></g><g><use xlink:href="#f4cq1tk8" opacity="1" fill="#e4d6b6" fill-opacity="1"></use><g><use xlink:href="#f4cq1tk8" opacity="1" fill-opacity="0" stroke="#000000" stroke-width="0" stroke-opacity="1"></use></g></g><g><use xlink:href="#e3B4fnXUan" opacity="1" fill="#e9f1f7" fill-opacity="1"></use><g><use xlink:href="#e3B4fnXUan" opacity="1" fill-opacity="0" stroke="#000000" stroke-width="0" stroke-opacity="1"></use></g></g></g></g></svg>